<svg xmlns="http://www.w3.org/2000/svg" width="48" height="48" viewBox="0 0 48 48">
    <g fill="none" fill-rule="evenodd">
        <path d="M0 48h48V0H0z"/>
        <path fill="#787878" d="M37.25 4.44h-26.5a2 2 0 0 0-2 2v32.847c0 1.181.97 2.004 2.007 2.004.39 0 .79-.117 1.153-.375L24 32.307l12.09 8.61c.362.257.763.374 1.153.374 1.038 0 2.007-.823 2.007-2.004V6.44a2 2 0 0 0-2-2m0 1.5a.5.5 0 0 1 .5.5v32.847c0 .347-.296.504-.507.504a.477.477 0 0 1-.283-.097l-12.09-8.608a1.491 1.491 0 0 0-1.74 0l-12.09 8.608a.477.477 0 0 1-.283.097c-.21 0-.507-.157-.507-.504V6.44c0-.275.225-.5.5-.5h26.5"/>
        <path fill="#787878" d="M9.525 10.319h28.949v-1.5H9.525z"/>
    </g>
</svg>
