<?xml version="1.0" standalone="no"?>
<!DOCTYPE svg PUBLIC "-//W3C//DTD SVG 20010904//EN"
 "http://www.w3.org/TR/2001/REC-SVG-20010904/DTD/svg10.dtd">
<svg version="1.0" xmlns="http://www.w3.org/2000/svg"
 width="840.000000pt" height="908.000000pt" viewBox="0 0 840.000000 908.000000"
 preserveAspectRatio="xMidYMid meet">

<g transform="translate(0.000000,908.000000) scale(0.100000,-0.100000)"
fill="#000000" stroke="none">
<path d="M4735 8673 c-152 -20 -279 -100 -334 -210 -39 -79 -47 -130 -81 -540
-56 -672 -429 -1385 -1085 -2072 -102 -108 -312 -301 -438 -404 l-97 -80 2
-2242 3 -2241 37 -75 c70 -141 219 -256 425 -329 211 -74 100 -70 1993 -70
l1696 0 51 26 c134 66 275 278 406 609 83 209 312 1017 496 1755 297 1185 429
1978 368 2207 -51 191 -185 313 -386 349 -61 11 -298 13 -1208 14 -623 0
-1133 2 -1133 5 0 3 22 94 50 203 212 843 269 1605 158 2122 -95 448 -306 763
-613 918 -110 55 -195 70 -310 55z"/>
<path d="M419 5360 c-88 -15 -151 -67 -190 -154 -30 -68 -31 -35 31 -1016 28
-446 61 -989 125 -2025 89 -1459 95 -1536 107 -1577 16 -56 78 -121 140 -149
l53 -24 628 -3 c407 -2 641 1 666 8 58 15 104 51 129 100 l22 44 0 2258 c0
1586 -3 2272 -11 2308 -21 97 -107 184 -219 222 -41 14 -1404 21 -1481 8z"/>
</g>
</svg>
