<?xml version="1.0" standalone="no"?>
<!DOCTYPE svg PUBLIC "-//W3C//DTD SVG 20010904//EN"
 "http://www.w3.org/TR/2001/REC-SVG-20010904/DTD/svg10.dtd">
<svg version="1.0" xmlns="http://www.w3.org/2000/svg"
 width="880.000000pt" height="920.000000pt" viewBox="0 0 880.000000 920.000000"
 preserveAspectRatio="xMidYMid meet">

<g transform="translate(0.000000,920.000000) scale(0.100000,-0.100000)"
fill="#000000" stroke="none">
<path d="M4095 8789 c-822 -68 -1564 -363 -2205 -875 -174 -139 -467 -432
-604 -604 -699 -875 -1002 -1977 -845 -3075 103 -719 385 -1367 847 -1947 136
-171 429 -464 600 -600 909 -725 2040 -1021 3177 -832 442 74 882 227 1271
444 325 181 619 404 889 674 400 400 682 827 890 1346 223 554 319 1174 274
1764 -62 829 -356 1574 -877 2228 -136 171 -429 464 -602 602 -612 489 -1320
781 -2105 866 -136 15 -575 21 -710 9z m440 -2004 c376 -61 695 -331 814 -690
59 -178 67 -409 22 -585 -26 -99 -91 -242 -150 -328 -136 -201 -356 -355 -597
-419 -87 -22 -119 -26 -254 -26 -135 0 -168 4 -252 26 -403 107 -704 434 -768
835 -14 84 -14 266 0 345 35 201 130 385 274 535 241 250 574 362 911 307z
m523 -2353 c271 -60 471 -168 658 -356 224 -223 352 -503 371 -812 7 -123 -3
-160 -65 -226 -79 -85 -222 -162 -389 -210 l-78 -23 -1185 0 c-1310 0 -1208
-5 -1387 64 -147 57 -277 151 -319 232 -37 71 -10 327 52 501 149 416 508 732
938 824 130 28 237 32 776 29 498 -2 541 -4 628 -23z"/>
</g>
</svg>
