<svg id="Layer_1" enable-background="new 0 0 512.009 512.009" height="512" viewBox="0 0 512.009 512.009" width="512" xmlns="http://www.w3.org/2000/svg"><path d="m256.004 56.055c-110.252 0-199.949 89.697-199.949 199.949s89.697 199.949 199.949 199.949 199.949-89.697 199.949-199.949-89.697-199.949-199.949-199.949zm-103.637 334.544c4.499-23.075 19.181-42.903 40.379-54.002l17.368-9.094c9.66-5.058 16.159-14.132 17.83-24.897 1.684-10.849-1.796-21.561-9.548-29.39-9.87-9.966-15.305-23.178-15.305-37.202v-22.511c0-29.176 23.736-52.912 52.913-52.912 29.176 0 52.912 23.736 52.912 52.912v22.511c0 14.024-5.435 27.236-15.304 37.202-7.752 7.829-11.232 18.54-9.549 29.389 1.671 10.765 8.169 19.84 17.829 24.898l17.369 9.094c21.208 11.104 35.891 30.931 40.382 54-28.705 22.156-64.657 35.357-103.639 35.357-38.981 0-74.932-13.201-103.637-35.355zm231.802-23.108c-9.197-24.439-27.101-44.963-50.991-57.471l-17.369-9.094c-1.481-.776-1.96-2.017-2.101-2.922-.122-.79-.127-2.318 1.221-3.679 15.469-15.621 23.987-36.329 23.987-58.311v-22.511c0-45.718-37.194-82.912-82.912-82.912s-82.913 37.194-82.913 82.912v22.511c0 21.981 8.519 42.69 23.987 58.311 1.348 1.361 1.343 2.89 1.221 3.679-.141.905-.619 2.146-2.101 2.922l-17.369 9.094c-23.883 12.505-41.786 33.031-50.987 57.476-26.013-29.864-41.788-68.869-41.788-111.491 0-93.71 76.239-169.949 169.949-169.949s169.949 76.239 169.949 169.949c.002 42.62-15.772 81.622-41.783 111.486z"/><path d="m437.027 74.982c-48.353-48.353-112.641-74.982-181.023-74.982-68.381 0-132.669 26.629-181.022 74.982s-74.982 112.641-74.982 181.023 26.629 132.669 74.982 181.022 112.641 74.982 181.022 74.982c68.382 0 132.67-26.629 181.022-74.982 48.354-48.353 74.982-112.641 74.982-181.022s-26.628-132.67-74.981-181.023zm-21.213 340.832c-42.687 42.687-99.441 66.195-159.81 66.195-60.368 0-117.123-23.509-159.809-66.195s-66.195-99.442-66.195-159.809 23.509-117.123 66.195-159.809 99.442-66.196 159.809-66.196c60.368 0 117.123 23.509 159.81 66.195s66.195 99.441 66.195 159.809-23.509 117.123-66.195 159.81z"/></svg>